<?xml version="1.0" standalone="no"?>
<!DOCTYPE svg PUBLIC "-//W3C//DTD SVG 20010904//EN"
 "http://www.w3.org/TR/2001/REC-SVG-20010904/DTD/svg10.dtd">
<svg version="1.0" xmlns="http://www.w3.org/2000/svg"
 width="700.000000pt" height="700.000000pt" viewBox="0 0 700.000000 700.000000"
 preserveAspectRatio="xMidYMid meet">
<metadata>
Created by potrace 1.14, written by Peter Selinger 2001-2017
</metadata>
<g transform="translate(0.000000,700.000000) scale(0.100000,-0.100000)"
fill="#000000" stroke="none">
<path d="M2040 5667 c-52 -55 -131 -139 -176 -186 -44 -48 -105 -112 -135
-145 -30 -32 -72 -77 -94 -100 -22 -23 -101 -107 -175 -186 -74 -80 -163 -174
-197 -210 -34 -36 -78 -83 -99 -105 -20 -22 -90 -96 -154 -165 -65 -69 -135
-143 -156 -166 -22 -23 -89 -95 -150 -160 -62 -65 -134 -142 -160 -171 -102
-107 -281 -298 -326 -347 -26 -28 -47 -56 -45 -62 1 -6 57 -69 123 -140 67
-71 136 -145 154 -164 18 -19 87 -93 154 -164 66 -71 135 -143 151 -161 64
-68 163 -174 240 -256 152 -162 340 -362 365 -389 14 -14 83 -88 153 -163 71
-75 137 -146 148 -158 20 -23 238 -255 362 -385 43 -45 84 -90 91 -99 6 -9 18
-13 26 -9 18 7 120 121 120 131 -1 5 -37 37 -81 73 -126 102 -221 196 -343
340 -204 240 -412 675 -471 982 -2 11 -6 27 -9 36 -6 21 -13 61 -21 121 -4 25
-9 62 -11 81 -10 68 -14 157 -14 320 0 211 7 293 45 485 54 274 184 589 343
834 132 202 352 439 530 569 34 25 62 48 62 51 0 3 -35 43 -78 88 l-78 82 -94
-102z"/>
<path d="M4859 5763 c-2 -6 -37 -46 -77 -88 -40 -43 -70 -81 -65 -85 4 -4 50
-42 102 -85 269 -222 460 -462 610 -763 79 -159 165 -391 187 -502 3 -14 10
-45 15 -70 41 -182 53 -303 53 -540 -1 -249 -12 -345 -65 -568 -41 -171 -142
-438 -211 -555 -15 -26 -28 -50 -28 -52 0 -6 -53 -95 -89 -150 -116 -177 -317
-400 -477 -528 l-82 -65 69 -73 69 -74 37 41 c21 23 97 103 168 179 72 75 143
151 159 169 16 17 66 70 110 117 80 85 327 348 377 401 14 15 72 78 130 139
57 61 118 126 134 144 178 190 277 296 315 336 25 26 88 93 140 150 52 56 117
125 143 153 27 28 90 96 140 150 51 55 97 104 103 111 9 8 1 22 -28 56 -51 55
-284 305 -519 554 -31 33 -69 74 -84 90 -15 17 -86 93 -158 170 -172 182 -348
371 -437 465 -67 72 -263 281 -285 304 -11 12 -87 93 -170 181 -231 248 -282
299 -286 288z"/>
<path d="M2557 5415 c-52 -18 -83 -49 -103 -102 -16 -40 -17 -114 -18 -761 -1
-780 -2 -772 55 -830 76 -78 203 -59 258 38 17 30 21 61 26 205 6 178 12 263
20 305 3 14 7 36 10 50 23 125 132 329 239 447 99 109 260 211 420 266 52 17
87 20 241 21 159 1 188 -2 246 -21 342 -112 577 -365 668 -718 25 -98 32 -275
16 -418 -6 -54 -4 -78 10 -112 18 -48 71 -101 111 -111 65 -16 158 28 187 89
27 56 36 131 37 302 1 211 -34 393 -112 569 -78 177 -180 322 -321 456 -67 63
-196 159 -214 160 -6 0 -13 3 -15 8 -5 11 -134 72 -208 98 -133 46 -256 67
-395 67 -78 0 -203 -10 -214 -17 -3 -2 -24 -7 -45 -10 -65 -11 -212 -63 -297
-107 -106 -54 -217 -135 -304 -220 -38 -37 -71 -66 -73 -65 -1 2 -5 66 -8 142
-2 77 -9 153 -16 169 -18 48 -59 84 -112 100 -27 8 -50 15 -50 15 -1 -1 -18
-7 -39 -15z"/>
<path d="M3518 4966 c-157 -41 -287 -115 -398 -227 -76 -77 -135 -159 -174
-244 -15 -33 -31 -67 -35 -75 -11 -22 -37 -115 -51 -182 -15 -76 -15 -256 -1
-336 47 -254 188 -475 385 -607 98 -65 154 -90 266 -121 73 -20 104 -23 225
-20 122 2 150 6 218 29 166 57 302 150 412 279 86 101 81 182 -13 195 -61 8
-118 -17 -220 -98 -48 -38 -111 -83 -141 -100 -139 -79 -343 -90 -501 -27
-289 115 -454 423 -405 753 36 244 221 464 450 536 104 33 252 31 360 -6 100
-33 141 -57 240 -139 99 -82 136 -101 203 -101 45 0 57 4 73 24 44 54 18 114
-100 232 -217 217 -517 306 -793 235z"/>
<path d="M3695 4677 c-12 -19 -15 -57 -16 -175 0 -85 4 -160 10 -170 15 -29
37 -33 62 -13 20 16 21 24 20 167 -2 178 -2 183 -26 200 -26 19 -32 18 -50 -9z"/>
<path d="M3495 4547 c-55 -29 -137 -101 -175 -152 -117 -159 -135 -389 -45
-572 86 -175 243 -282 423 -288 149 -5 264 40 368 145 103 105 149 207 159
353 7 104 -25 233 -79 327 -53 91 -160 181 -248 211 -39 13 -41 12 -64 -15
-43 -50 -32 -74 66 -139 131 -87 192 -198 191 -347 0 -127 -39 -218 -126 -299
-247 -227 -625 -39 -611 304 4 96 8 114 41 180 32 67 86 123 168 174 53 34 66
47 69 73 4 24 -1 38 -18 55 -30 30 -47 29 -119 -10z"/>
<path d="M3793 4268 c-11 -14 -23 -57 -29 -103 -7 -50 -20 -47 -33 7 -26 106
-71 133 -91 56 -6 -24 -13 -50 -15 -58 -2 -8 -7 -35 -10 -60 -4 -24 -8 -47
-10 -51 -2 -3 -7 -30 -10 -60 -3 -30 -7 -63 -9 -74 -4 -25 11 -45 34 -45 18 0
36 33 45 85 2 17 8 44 11 60 l7 30 9 -30 c5 -16 11 -41 14 -55 9 -45 29 -75
51 -78 26 -4 34 17 62 168 32 167 34 198 11 210 -24 13 -25 13 -37 -2z"/>
<path d="M2703 3514 c-96 -20 -175 -80 -220 -168 -25 -48 -28 -60 -39 -126 -6
-33 -9 -1034 -4 -1225 3 -103 17 -147 62 -187 64 -57 154 -52 219 13 30 30 38
47 44 90 4 30 9 298 10 596 2 556 4 573 40 573 7 0 51 -30 96 -66 118 -93 151
-115 264 -172 184 -93 350 -130 565 -126 311 4 600 129 835 359 163 159 203
250 155 349 -12 25 -35 55 -52 67 -32 23 -101 35 -141 25 -13 -3 -73 -56 -133
-117 -133 -135 -204 -190 -309 -240 -120 -56 -228 -81 -365 -83 -140 -1 -198
6 -295 39 -140 48 -234 109 -385 249 -121 113 -165 142 -227 151 -21 3 -42 7
-48 9 -5 2 -38 -3 -72 -10z"/>
</g>
</svg>
